<svg data-name="Layer 1" xmlns="http://www.w3.org/2000/svg" width="987.9099731445312" height="646.4586181640625" style=""><rect id="backgroundrect" width="100%" height="100%" x="0" y="0" fill="none" stroke="none"/><title>chore_list</title><g class="currentLayer" style=""><title>Layer 1</title><circle cx="293.90997314453125" cy="495.22796630859375" r="145" fill="#f2f2f2" id="svg_1"/><rect x="24.400409698486328" y="640.3590087890625" width="963.5095825195312" height="2.24072003364563" fill="#2f2e41" id="svg_2"/><path d="M287.7699890136719,496.14794158935547 c0,108.36000061035156 -64.41999816894531,146.1999969482422 -143.8800048828125,146.1999969482422 c-1.850000023841858,0 -3.690000057220459,-0.019999999552965164 -5.519999980926514,-0.07000000029802322 c-3.680000066757202,-0.07999999821186066 -7.329999923706055,-0.23999999463558197 -10.930000305175781,-0.5 c-71.72000122070312,-5.070000171661377 -127.44000244140625,-44.86000061035156 -127.44000244140625,-145.6300048828125 c0,-104.27999877929688 133.24000549316406,-235.8699951171875 143.2899932861328,-245.63999938964844 a0.03099999949336052,0.03099999949336052 0 0 1 0.019999999552965164,-0.009999999776482582 c0.3799999952316284,-0.379940003156662 0.5799999833106995,-0.5699399709701538 0.5799999833106995,-0.5699399709701538 S287.7699890136719,387.77794647216797 287.7699890136719,496.14794158935547 z" fill="#3f3d56" id="svg_3"/><path d="M138.63998413085938,625.767936706543 l52.630001068115234,-73.52999877929688 l-52.7599983215332,81.5999984741211 l-0.1399500072002411,8.4399995803833 c-3.680000066757202,-0.07999999821186066 -7.329999923706055,-0.23999999463558197 -10.930000305175781,-0.5 l5.670000076293945,-108.41000366210938 l-0.03999999910593033,-0.8399999737739563 l0.10000000149011612,-0.1599999964237213 l0.5299999713897705,-10.239999771118164 l-52.889949798583984,-81.80999755859375 l53.04999923706055,74.12999725341797 l0.12999999523162842,2.1700000762939453 l4.289999961853027,-81.91000366210938 l-45.279998779296875,-84.52999877929688 l45.83000183105469,70.13999938964844 l4.460000038146973,-169.80999755859375 l0.019999999552965164,-0.5799499750137329 v0.5699399709701538 l-0.7400000095367432,133.91000366210938 l45.06999969482422,-53.09000015258789 l-45.2599983215332,64.62000274658203 l-1.1899399757385254,73.33999633789062 l42.09000015258789,-70.37999725341797 l-42.27000045776367,81.18000030517578 l-0.6600000262260437,40.77000045776367 l61.099998474121094,-97.97000122070312 l-61.32994842529297,112.19999694824219 z" fill="#f2f2f2" id="svg_4"/><path d="M803.4100036621094,201.72798919677734 l-20,-21 s-22,-33 -38,-24 s23,30 23,30 l20,33 z" fill="#a0616a" id="svg_5"/><path d="M866.4100036621094,608.7279586791992 s15,29 4,31 s-65,5 -66,2 s-9,-13 -3,-17 s30,-7 30,-7 l8,-8 z" fill="#2f2e41" id="svg_6"/><path d="M874.4100036621094,325.72798919677734 s32,40 6,81 l-6,69 s11,95 -3,127 l-2,11 h-35 l9,-84 s-1,-10 -4,-12 s-52,-110 -52,-110 s8,-15 5,-18 s3,-63 6,-65 S874.4100036621094,325.72798919677734 874.4100036621094,325.72798919677734 z" fill="#2f2e41" id="svg_7"/><polygon points="817.41 599.728 813.41 622.728 852.41 620.728 847.41 595.728 817.41 599.728" fill="#a0616a" id="svg_8"/><circle cx="824.4099731445312" cy="161.7279815673828" r="30" fill="#a0616a" id="svg_9"/><path d="M851.4100036621094,166.72798919677734 l3,36 l-32,15 s5.5,-33.5 1.5,-42.5 z" fill="#a0616a" id="svg_10"/><path d="M818.4100036621094,215.72798919677734 l3,-12 l41,-15 s4,0 3,7 s-1,6 -1,6 s14,6 15,16 s17,13 16,28 s-6,23 -6,23 s5,12 -3,19 c0,0 -8,14 -4,24 s9,27 -2,24 s-87,-8 -87,-8 s-11,-41 1,-56 c0,0 0,-9 9,-27 S818.4100036621094,215.72798919677734 818.4100036621094,215.72798919677734 z" fill="#575a89" id="svg_11"/><path d="M871.4100036621094,328.72798919677734 s-13,55 -29,61 c0,0 -3,40 -20,38 s0,-38 0,-38 l19,-69 z" fill="#a0616a" id="svg_12"/><path d="M820.4100036621094,218.72798919677734 s-15,-24 -19,-20 s-24,16 -23,24 s10,8 10,8 l21,16 z" fill="#575a89" id="svg_13"/><path d="M799.4100036621094,397.7279586791992 l-12,8.62600040435791 l-8,85.3740005493164 s29,116 37,117 s41,1 40,-2 s-6,-15 -6,-18 s-10.42947006225586,-26.991600036621094 -10.42947006225586,-26.991600036621094 L826.4100036621094,505.7279586791992 l3,-44 z" fill="#2f2e41" id="svg_14"/><path d="M814.4100036621094,614.7279586791992 s42,-13 44,-10 s15.340290069580078,33.23622131347656 -3.329859972000122,36.61811065673828 s-85.6701431274414,9.381890296936035 -85.6701431274414,0.3818899989128113 s2,-15 8,-15 s33,-13 35,-16 S814.4100036621094,614.7279586791992 814.4100036621094,614.7279586791992 z" fill="#2f2e41" id="svg_15"/><path d="M852.8562316894531,163.69988250732422 a2.9611599445343018,2.9611599445343018 0 0 0 -4.006259918212891,-3.959249973297119 l-0.05282000079751015,0.030389999970793724 a5.189489841461182,5.189489841461182 0 0 0 -2.440000057220459,5.188549995422363 c-3.6061699390411377,-3.5981600284576416 -0.9484800100326538,-10.81406021118164 -4.844850063323975,-14.095769882202148 c-1.8034800291061401,-1.5190000534057617 -4.730999946594238,-1.85316002368927 -5.657519817352295,-4.021440029144287 c-0.5393800139427185,-1.2623100280761719 -0.1726599931716919,-2.758539915084839 -0.6481099724769592,-4.046289920806885 c-0.7059999704360962,-1.912160038948059 -2.961440086364746,-2.7106499671936035 -4.977479934692383,-3.0112900733947754 c-6.339940071105957,-0.9454399943351746 -12.751660346984863,0.6633700132369995 -18.959760665893555,2.2596700191497803 c-2.282749891281128,0.5870000123977661 -4.683060169219971,1.2392200231552124 -6.345779895782471,2.9098000526428223 c-1.751289963722229,1.7595499753952026 -2.3606600761413574,4.316189765930176 -3.4345200061798096,6.554460048675537 s-8.116939544677734,2.0360000133514404 -10.579190254211426,1.7192599773406982 c-0.8560000061988831,-2.4314799308776855 5.465879917144775,-2.614799976348877 5.981939792633057,-5.140369892120361 c1.410539984703064,-6.9029998779296875 -3.5015199184417725,-14.2435302734375 -1.0917799472808838,-20.864309310913086 c1.4520000219345093,-3.9894800186157227 5.245190143585205,-6.630370140075684 9.064080238342285,-8.485219955444336 a48.10818862915039,48.10818862915039 0 0 1 34.03900146484375,-2.9046499729156494 a7.557829856872559,7.557829856872559 0 0 1 3.1437699794769287,1.5200799703598022 c1.4533300399780273,1.3567700386047363 1.7227599620819092,3.53518009185791 2.69064998626709,5.271890163421631 c2.205319881439209,3.957050085067749 7.43556022644043,4.897510051727295 10.962300300598145,7.7407097816467285 c5.3412299156188965,4.306000232696533 5.943399906158447,12.081080436706543 6.116340160369873,18.93968963623047 c0.08709999918937683,3.4539999961853027 0.14856000244617462,7.043000221252441 -1.2661700248718262,10.195240020751953 s-4.767250061035156,5.720729827880859 -8.158699989318848,5.060480117797852 C852.5519714355469,164.30071258544922 852.7059631347656,164.00914764404297 852.8562316894531,163.69988250732422 z" fill="#2f2e41" id="svg_16"/><path d="M847.6387023925781,228.47264862060547 a21.306549072265625,21.306549072265625 0 0 1 26.008119583129883,1.3216999769210815 c6.891930103302002,5.856659889221191 14.305999755859375,14.247790336608887 13.763150215148926,22.933629989624023 c-1,16 -7,82 -15,83 s-37,-7 -37,-12 s7,-11 7,-11 l-8.499250411987305,-50.99549865722656 a33.708858489990234,33.708858489990234 0 0 1 13.27929973602295,-32.94070816040039 Q847.4127502441406,228.63143157958984 847.6387023925781,228.47264862060547 z" fill="#575a89" id="svg_17"/><path d="M736.1476745605469,0.0011138916015625 H495.5321960449219 a51.150108337402344,51.150108337402344 0 0 0 -49.89773941040039,39.900611877441406 L324.05621337890625,579.1689987182617 A41.340309143066406,41.340309143066406 0 0 0 362.3499755859375,629.5513229370117 l247.35438537597656,12.187129974365234 a54.614898681640625,54.614898681640625 0 0 0 56.43046188354492,-44.827449798583984 l68.96659851074219,-381.26800537109375 l5.130809783935547,1.465999960899353 l13.19612979888916,-72.26455688476562 l-5.281459808349609,-1.3203599452972412 l19.250999450683594,-106.42558288574219 A31.492780685424805,31.492780685424805 0 0 0 736.1476745605469,0.0011138916015625 z" fill="#3f3d56" id="svg_18"/><path d="M527.2088317871094,11.626304626464844 H499.1217956542969 a35.34864044189453,35.34864044189453 0 0 0 -34.536190032958984,27.813480377197266 L347.88720703125,574.3073043823242 a21.903249740600586,21.903249740600586 0 0 0 19.96738052368164,26.525419235229492 l246.55416870117188,16.158939361572266 a28.366849899291992,28.366849899291992 0 0 0 29.77273941040039,-23.277490615844727 L743.7610168457031,40.87647247314453 A24.845739364624023,24.845739364624023 0 0 0 719.3087463378906,11.626304626464844 h-26.645000457763672 a11.725830078125,11.725830078125 0 0 0 -11.322649955749512,8.677419662475586 v0 a10.351840019226074,10.351840019226074 0 0 1 -9.99590015411377,7.660630226135254 H544.8519592285156 a17.695220947265625,17.695220947265625 0 0 1 -17.64310073852539,-16.33806037902832 z" fill="#ffffff" id="svg_19" class="selected" fill-opacity="1"/><rect x="448.660400390625" y="149.8715362548828" width="255.1253204345703" height="1.2567700147628784" fill="#2f2e41" id="svg_20"/><rect x="438.606201171875" y="190.71670532226562" width="257.63885498046875" height="1.2567700147628784" fill="#2f2e41" id="svg_21"/><polygon points="687.675 147.881 681.877 140.152 682.883 139.399 687.893 146.078 707.199 130.283 707.994 131.256 687.675 147.881" fill="#2f2e41" id="svg_22"/><polygon points="654.37 330.114 648.573 322.385 649.578 321.631 654.589 328.311 673.894 312.515 674.69 313.489 654.37 330.114" fill="#2f2e41" id="svg_23"/><rect x="719.0367431640625" y="1300.5701904296875" width="1.2570600509643555" height="267.12457275390625" transform="rotate(-88.7869, 69.7591, 973.687)" fill="#2f2e41" id="svg_24"/><rect x="669.2509765625" y="1365.4010009765625" width="1.2571200132369995" height="272.1643371582031" transform="rotate(-88.677, 25.6289, 1003.65)" fill="#2f2e41" id="svg_25"/><path d="M568.9966125488281,474.4336471557617 a59.69681167602539,59.69681167602539 0 0 1 -119.39362335205078,0 c0,-0.7477499842643738 0.01257999986410141,-1.4892799854278564 0.04399999976158142,-2.2308099269866943 a59.695621490478516,59.695621490478516 0 0 1 119.3495864868164,2.2308099269866943 z" opacity="0.1" id="svg_26"/><path d="M563.3411560058594,497.6840133666992 c0,0.7477399706840515 -0.01257999986410141,1.4892699718475342 -0.04399999976158142,2.230799913406372 A59.7041015625,59.7041015625 0 0 1 449.6029968261719,474.4336471557617 c0,-0.7477499842643738 0.01257999986410141,-1.4892799854278564 0.04399999976158142,-2.2308099269866943 a59.7041015625,59.7041015625 0 0 1 113.69409942626953,25.481149673461914 z" opacity="0.1" id="svg_27"/><polygon points="497.217 490.858 475.995 462.562 481.022 458.791 498.311 481.843 566.379 426.152 570.358 431.016 497.217 490.858" fill="#f2f2f2" id="svg_28"/></g></svg>