<?xml version="1.0" encoding="UTF-8" standalone="no"?>
<!DOCTYPE svg PUBLIC "-//W3C//DTD SVG 1.1//EN" "http://www.w3.org/Graphics/SVG/1.1/DTD/svg11.dtd">
<svg version="1.1" xmlns="http://www.w3.org/2000/svg" xmlns:xlink="http://www.w3.org/1999/xlink" preserveAspectRatio="xMidYMid meet" viewBox="0 0 640 640" width="640" height="640"><defs><path d="M486.52 424.12C476.29 446.72 458.78 455.82 443.15 465.34C438.63 468.09 433.93 470.43 429.09 472.35C400.64 483.66 368.79 480.66 343.77 474.69C326.23 470.49 308.42 467.91 290.51 466.97C282.85 466.57 276.71 466.61 275.18 466.57C267.29 466.59 125.22 469.68 90.62 389.41C82.08 369.61 76.23 345.42 74.13 315.94C68.18 232.59 100.88 177.84 143.07 142.06C222.88 74.37 332.28 77.21 410.91 146.68C463.29 192.96 512.33 262.99 502.51 359.43C499.82 385.91 494.21 407.17 486.52 424.12Z" id="a1XpGnd6Yb"></path><path d="M144.94 424.68C102.55 424.68 68.18 401.55 68.18 335.3C68.18 269.04 144.94 184.76 144.94 184.76C144.94 184.76 221.69 269.04 221.69 335.3C221.69 401.55 187.33 424.68 144.94 424.68Z" id="a1g078yIwb"></path><path d="M142.93 359.1L175.64 290.5L143.05 350.4L143.4 325.47L165.95 275.84L143.5 318.87L143.5 318.87L144.13 274.03L168.28 234.52L144.23 266.98L144.63 184.76L142.13 293.6L142.34 289.11L117.79 246.05L141.94 297.73L139.66 347.81L139.59 346.49L111.29 301.16L139.5 351.18L139.22 357.44L139.17 357.54L139.19 358.05L133.39 485.11L141.14 485.11L142.07 419.48L170.21 369.59L142.14 414.55L142.14 414.55L142.93 359.1Z" id="aBuEy1yN"></path><path d="M482.65 428.79C440.26 428.79 405.9 405.66 405.9 339.4C405.9 273.15 482.65 188.86 482.65 188.86C482.65 188.86 559.41 273.15 559.41 339.4C559.41 405.66 525.04 428.79 482.65 428.79Z" id="aaKJ7MfKs"></path><path d="M480.64 363.21L513.36 294.61L480.77 354.51L481.12 329.58L503.67 279.95L481.21 322.98L481.21 322.98L481.85 278.14L505.99 238.62L481.95 271.08L482.35 188.86L479.85 297.71L480.06 293.22L455.51 250.15L479.66 301.84L477.37 351.92L477.31 350.59L449.01 305.27L477.22 355.29L476.93 361.55L476.88 361.64L476.91 362.16L471.1 489.22L478.86 489.22L479.79 423.59L507.93 373.69L479.86 418.66L479.86 418.66L480.64 363.21Z" id="k4lNgzoN2E"></path><path d="M315.84 380.86C269.49 380.86 231.92 355.57 231.92 283.13C231.92 210.69 315.84 118.54 315.84 118.54C315.84 118.54 399.76 210.69 399.76 283.13C399.76 355.57 362.19 380.86 315.84 380.86Z" id="cJs2WGzZ7"></path><path d="M313.64 309.16L349.41 234.16L313.78 299.65L314.17 272.39L338.82 218.13L314.27 265.17L314.27 265.17L314.96 216.15L341.36 172.95L315.07 208.44L315.51 118.54L312.78 237.55L313 232.64L286.16 185.55L312.57 242.06L310.07 296.82L310 295.37L279.06 245.82L309.9 300.5L309.59 307.35L309.53 307.45L309.56 308.01L303.21 446.93L311.69 446.93L312.71 375.18L343.48 320.63L312.78 369.78L312.78 369.78L313.64 309.16Z" id="a1FlBBlzay"></path><path d="M295.37 559.15C185.72 559.15 96.84 510.77 96.84 495.22C96.84 479.68 178.56 444.79 288.21 444.79C397.86 444.79 493.91 479.68 493.91 495.22C493.91 510.77 405.02 559.15 295.37 559.15Z" id="aS4n8Njwd"></path><path d="M295.37 559.15C185.72 559.15 96.84 510.77 96.84 495.22C96.84 479.68 178.56 444.79 288.21 444.79C397.86 444.79 493.91 479.68 493.91 495.22C493.91 510.77 405.02 559.15 295.37 559.15Z" id="b5nX8wF20c"></path><path d="M295.37 523.38C185.72 523.38 96.84 510.77 96.84 495.22C96.84 479.68 178.56 444.79 288.21 444.79C397.86 444.79 493.91 479.68 493.91 495.22C493.91 510.77 405.02 523.38 295.37 523.38Z" id="b1GzztRzpC"></path><path d="M362.11 417.27C362.11 439.57 374.32 457.62 389.41 457.62" id="aeArKEInW"></path><path d="M389.41 457.62C389.41 435.06 403.03 416.81 419.87 416.81" id="f3BmrfUoZp"></path><path d="M372 419.29C372 440.48 379.79 457.62 389.41 457.62" id="b8tPwm7IM"></path><path d="M389.41 457.62C389.41 428.8 405.15 405.48 424.61 405.48" id="cb7XcgMSC"></path><path d="M388.7 456.81C388.7 456.81 394.66 454.73 394.95 456.25C394.95 456.25 400.76 463.85 396.39 463.89C396.39 463.89 386.24 463.11 385.07 462.29C383.91 461.48 383.67 457.9 383.67 457.9C384.67 457.69 387.54 457.77 388.7 456.81Z" id="ahx0eD6F2"></path><path d="M385.15 461.76C384.27 461.14 383.91 458.92 383.79 457.9C383.71 457.9 383.67 457.9 383.67 457.9C383.67 457.9 383.91 461.48 385.07 462.29C386.24 463.11 392.02 463.93 396.39 463.89C397.65 463.88 398.09 463.36 398.07 462.6C397.89 463.06 397.41 463.35 396.47 463.36C392.1 463.4 386.32 462.58 385.15 461.76Z" id="bq5WTa3lS"></path><path d="M365.48 492.29C365.48 499.09 335.24 504.61 297.93 504.61C260.63 504.61 230.39 499.09 230.39 492.29C230.39 485.49 260.63 479.97 297.93 479.97C335.24 479.97 365.48 485.49 365.48 492.29Z" id="a3ksSO28hd"></path><path d="M327.61 464.73C327.61 464.73 327.61 464.73 327.61 464.73C327.61 475.28 327.61 481.15 327.61 482.32C327.61 482.32 327.61 482.32 327.61 482.32C323.62 482.32 321.4 482.32 320.96 482.32C320.96 482.32 320.96 482.32 320.96 482.32C320.96 471.76 320.96 465.9 320.96 464.73C320.96 464.73 320.96 464.73 320.96 464.73C324.95 464.73 327.17 464.73 327.61 464.73Z" id="aBNDz5Zx"></path><path d="M347.8 335.21L324.48 343.33L321.53 328.45L346.91 327.09L346.91 327.09L347.8 335.21Z" id="dtAPG6dBM"></path><path d="M310.61 255.03C310.61 255.03 305.29 257.4 305.29 257.4C305.21 257.83 304.82 259.97 304.11 263.83L312.38 269.58L325.95 267.89L329.79 261.12C327.49 258.48 326.21 257.02 325.95 256.72C325.95 256.72 322.71 248.6 323.89 246.91C325.07 245.22 312.38 248.94 312.38 248.94C312.02 250.16 311.79 255.03 310.61 255.03Z" id="e3klHl5LLR"></path><path d="M310.61 255.03C310.61 255.03 305.29 257.4 305.29 257.4C305.21 257.83 304.82 259.97 304.11 263.83L312.38 269.58L325.95 267.89L329.79 261.12C327.49 258.48 326.21 257.02 325.95 256.72C325.95 256.72 322.71 248.6 323.89 246.91C325.07 245.22 312.38 248.94 312.38 248.94C312.02 250.16 311.79 255.03 310.61 255.03Z" id="eh2M36hqi"></path><path d="M269.58 481.37C269.58 481.37 281.97 485.09 281.97 485.09C282.09 484.35 283.04 478.39 283.15 477.65C283.15 477.65 283.45 464.11 284.63 462.08C285.81 460.05 275.48 459.72 275.48 459.72C274.3 464.05 272.82 480.02 269.58 481.37Z" id="bnxUVmdlV"></path><path d="M348.68 331.15C348.68 331.15 357.54 344.01 352.22 372.43C346.91 400.85 333.63 467.84 333.63 467.84C333.63 467.84 320.05 472.57 320.35 468.85C320.64 465.13 325.07 400.51 325.07 400.51C324.87 398.68 323.89 389.55 322.12 373.11L317.1 376.49L296.14 423.85C289.77 448.42 286.22 462.06 285.52 464.79C285.52 464.79 271.94 467.5 274 461.75C274 461.75 282.86 411.34 282.86 411.34C284.72 405.04 299.6 354.7 301.46 348.41C301.46 348.41 300.86 341.64 305.59 341.64C314.21 339.54 348.39 332.85 348.68 331.15Z" id="b1awCyaWnv"></path><path d="M316.36 225.09C309.51 225.09 303.96 231.45 303.96 239.3C303.96 247.15 309.51 253.51 316.36 253.51C323.21 253.51 328.76 247.15 328.76 239.3C328.76 231.45 323.21 225.09 316.36 225.09Z" id="b2jbjbPS6"></path><path d="M309.42 261.8C309.42 261.8 313.26 298 313.26 298C313.82 301.82 318.31 332.41 318.87 336.23C318.87 336.23 343.66 332.85 344.55 326.42C345.44 319.99 329.2 257.06 329.2 257.06C325.25 258.01 323.3 263.49 309.42 261.8Z" id="c52drcxjZP"></path><path d="M313.56 278.04C313.56 278.04 308.54 255.37 307.06 255.71C305.82 255.99 294.26 261.1 290.51 264.52C289.82 265.15 289.4 265.72 289.35 266.2C289.06 269.24 299.98 299.69 299.98 299.69C299.98 299.69 308.54 321.68 305 328.79C301.46 335.89 301.16 345.03 307.65 344.35C314.15 343.67 335.7 342.32 332.74 323.37C332.74 323.37 338.35 336.57 354 327.09C354 327.09 363.44 325.4 363.15 321.68C362.85 317.96 348.09 285.82 348.09 285.82C348.09 285.82 345.73 271.61 350.16 266.2C349.16 264.84 341.13 254.02 340.12 252.66C340.12 252.66 337.76 248.6 335.4 250.63C335.4 250.63 327.73 256.05 326.84 256.39C326.84 256.39 325.37 255.17 325.37 255.17C323.33 260.07 322.51 265.53 323 270.93C323.89 279.73 323.3 293.26 323.3 293.26C323.3 293.26 316.21 289.2 313.56 278.04Z" id="bkGdhtM4T"></path><path d="M276.37 477.31C276.37 477.31 275.71 474.94 271.9 477.31C271.9 477.31 273.12 469.87 268.99 469.87C264.85 469.87 263.38 478.66 263.38 478.66C263.38 478.66 262.2 484.41 254.23 486.78C246.26 489.15 252.46 497.27 258.06 497.27C263.67 497.27 271.05 492.19 271.05 492.19C271.05 492.19 286.4 492.53 286.7 489.15C286.99 485.77 285.22 475.62 284.04 475.62C282.86 475.62 280.5 480.35 280.5 480.35C279.67 479.74 277.19 477.92 276.37 477.31Z" id="d4t0K9Q0TE"></path><path d="M326.54 471.35C326.54 471.35 322.41 466.28 320.05 474.74C320.05 474.74 315.92 486.58 317.39 487.93C317.39 487.93 320.05 488.61 319.46 491.32C319.46 491.32 321.23 499.77 326.54 499.77C326.54 499.77 333.33 495.38 333.04 492.33C333.04 492.33 330.38 485.56 330.38 485.56C330.22 484.93 329.44 481.78 328.02 476.09C327.23 473.57 326.74 471.99 326.54 471.35Z" id="e4jzSBIWGA"></path><path d="M349.86 233.38C340.48 237.03 335.26 239.06 334.22 239.47C334.22 239.47 320.05 248.94 326.25 250.97C326.25 250.97 337.76 244.88 337.76 244.88C338.67 244.61 343.19 243.26 351.34 240.82L349.86 233.38Z" id="b8E9AUm43F"></path><path d="M302.92 226.07C300.06 230.17 297.27 235.06 297.97 240.24C298.24 242.21 299 244.04 299.43 245.97C300.01 248.57 299.97 251.3 299.93 253.98C299.96 255.13 299.84 256.27 299.56 257.37C299.15 258.43 298.66 259.47 298.11 260.45C296.69 263.48 296.65 267.09 296.65 270.53C296.58 271.69 296.72 272.86 297.06 273.95C297.44 274.99 298.17 275.8 298.77 276.69C300.78 279.76 301.37 283.75 300.36 287.41C301.93 287.42 303.36 286.38 304.04 284.75C304.24 286.49 303.76 288.24 302.72 289.53C306.1 288.38 309.72 286.44 310.96 282.66C311.32 281.37 311.52 280.03 311.56 278.68C312.22 269.19 312.6 259.34 309.62 250.44C308.67 247.6 307.38 244.84 307.06 241.82C306.74 238.79 307.72 235.3 310.14 234.05C310.2 234.82 310.5 235.55 310.99 236.09C311.53 236.55 312.52 236.26 312.53 235.49C312.65 235.68 313.59 237.17 313.71 237.36C314.15 237.1 314.54 236.72 314.82 236.25C314.87 236.32 315.14 236.7 315.62 237.37L317.33 235.95C318.22 237.05 318.71 237.66 318.81 237.78C319.38 237.41 319.84 236.84 320.11 236.16C320.43 236.7 320.83 237.3 321.4 237.36C322.64 237.49 322.9 235.23 323.98 234.52C324.81 234.1 325.78 234.44 326.27 235.32C326.72 236.19 326.88 237.22 326.73 238.22C326.28 242.87 322.82 247.12 323.85 251.65C324.42 254.19 326.37 256.24 326.51 258.86C326.63 260.96 325.56 262.95 325.57 265.05C325.59 267.52 327.08 269.61 328.53 271.43C331.11 274.67 333.83 277.75 336.68 280.69C336.15 279.63 335.86 279.04 335.8 278.92C336.63 278.85 337.45 279.19 338.04 279.87C338.3 278.85 337.88 277.79 337.48 276.84C335.11 271.13 333.19 265.05 332.9 258.73C332.51 249.95 335.26 241.03 333.52 232.47C332.51 227.67 330.17 223.38 326.85 220.25C325.23 218.73 324.01 217.82 321.92 217.65C319.58 217.41 317.23 217.44 314.9 217.71C312.32 217.99 309.84 218.98 307.66 220.6C305.81 222.06 304.33 224.06 302.92 226.07Z" id="c14tal1V6F"></path><path d="M337.76 253C337.76 253 341.01 253.34 342.48 253C342.48 253 346.03 250.97 346.03 250.97C346.77 250.34 350.51 247.18 357.24 241.5C351.4 242.51 348.15 243.08 347.5 243.19C347.5 243.19 349.27 227.63 348.68 227.29C348.68 227.29 377.31 220.52 376.72 231.01C376.72 231.01 359.6 262.14 350.16 266.2C349.75 266.26 347.68 266.6 343.96 267.21C340.65 259.63 338.59 254.9 337.76 253Z" id="b8zKYdnmLp"></path><path d="M369.57 372.95C369.57 372.95 369.57 372.95 369.57 372.95C369.57 395.47 369.57 407.98 369.57 410.48C369.57 410.48 369.57 410.48 369.57 410.48C286.06 410.48 239.67 410.48 230.39 410.48C230.39 410.48 230.39 410.48 230.39 410.48C230.39 387.96 230.39 375.45 230.39 372.95C230.39 372.95 230.39 372.95 230.39 372.95C313.9 372.95 360.29 372.95 369.57 372.95Z" id="d3PZ3b6anD"></path><path d="M351.4 381.45C351.4 381.45 351.4 381.45 351.4 381.45C351.4 393.41 351.4 400.06 351.4 401.39C351.4 401.39 351.4 401.39 351.4 401.39C289.39 401.39 254.93 401.39 248.04 401.39C248.04 401.39 248.04 401.39 248.04 401.39C248.04 389.43 248.04 382.78 248.04 381.45C248.04 381.45 248.04 381.45 248.04 381.45C310.06 381.45 344.51 381.45 351.4 381.45Z" id="b7evXnZFcW"></path><path d="M267.34 390.37C268.91 387.84 269.82 385.82 269.47 385.5C269.13 385.2 267.78 386.5 266.13 388.61C265.97 385.78 265.61 383.8 265.18 383.8C264.72 383.8 264.33 386.15 264.21 389.4C261.91 387.5 260.05 386.39 259.76 386.8C259.49 387.2 260.73 388.87 262.71 390.87C260.1 391.32 258.26 391.94 258.31 392.44C258.35 392.96 260.32 393.18 263.03 393.05C261.46 395.59 260.55 397.61 260.9 397.93C261.23 398.23 262.59 396.93 264.24 394.82C264.4 397.65 264.76 399.63 265.18 399.63C265.64 399.63 266.03 397.27 266.16 394.03C268.46 395.92 270.32 397.04 270.6 396.62C270.88 396.23 269.63 394.55 267.66 392.55C270.27 392.11 272.1 391.48 272.06 390.98C272.02 390.47 270.05 390.24 267.34 390.37Z" id="bp4RYv7RM"></path><path d="M284.74 390.37C286.31 387.84 287.22 385.82 286.86 385.5C286.53 385.2 285.18 386.5 283.52 388.61C283.37 385.78 283 383.8 282.58 383.8C282.12 383.8 281.73 386.15 281.6 389.4C279.3 387.5 277.45 386.39 277.16 386.8C276.89 387.2 278.13 388.87 280.11 390.87C277.5 391.32 275.66 391.94 275.7 392.44C275.74 392.96 277.72 393.18 280.42 393.05C278.86 395.59 277.95 397.61 278.3 397.93C278.63 398.23 279.99 396.93 281.64 394.82C281.8 397.65 282.16 399.63 282.58 399.63C283.04 399.63 283.43 397.27 283.56 394.03C285.86 395.92 287.72 397.04 288 396.62C288.27 396.23 287.03 394.55 285.06 392.55C287.66 392.11 289.5 391.48 289.46 390.98C289.42 390.47 287.45 390.24 284.74 390.37Z" id="eouyNBAXX"></path><path d="M302.14 390.37C303.7 387.84 304.61 385.82 304.26 385.5C303.93 385.2 302.57 386.5 300.92 388.61C300.76 385.78 300.4 383.8 299.98 383.8C299.52 383.8 299.13 386.15 299 389.4C296.7 387.5 294.84 386.39 294.56 386.8C294.29 387.2 295.53 388.87 297.5 390.87C294.9 391.32 293.06 391.94 293.1 392.44C293.14 392.96 295.12 393.18 297.82 393.05C296.25 395.59 295.34 397.61 295.7 397.93C296.03 398.23 297.39 396.93 299.04 394.82C299.19 397.65 299.56 399.63 299.98 399.63C300.44 399.63 300.83 397.27 300.96 394.03C303.26 395.92 305.11 397.04 305.4 396.62C305.67 396.23 304.43 394.55 302.45 392.55C305.06 392.11 306.9 391.48 306.86 390.98C306.82 390.47 304.84 390.24 302.14 390.37Z" id="afmIVNuhE"></path><path d="M319.53 390.37C321.1 387.84 322.01 385.82 321.66 385.5C321.33 385.2 319.97 386.5 318.32 388.61C318.16 385.78 317.8 383.8 317.38 383.8C316.92 383.8 316.53 386.15 316.4 389.4C314.1 387.5 312.24 386.39 311.96 386.8C311.68 387.2 312.93 388.87 314.9 390.87C312.29 391.32 310.46 391.94 310.5 392.44C310.54 392.96 312.51 393.18 315.22 393.05C313.65 395.59 312.74 397.61 313.09 397.93C313.43 398.23 314.78 396.93 316.44 394.82C316.59 397.65 316.95 399.63 317.38 399.63C317.84 399.63 318.23 397.27 318.36 394.03C320.65 395.92 322.51 397.04 322.8 396.62C323.07 396.23 321.83 394.55 319.85 392.55C322.46 392.11 324.3 391.48 324.25 390.98C324.21 390.47 322.24 390.24 319.53 390.37Z" id="aJtx2a50e"></path><path d="M336.93 390.37C338.5 387.84 339.41 385.82 339.06 385.5C338.72 385.2 337.37 386.5 335.72 388.61C335.56 385.78 335.2 383.8 334.77 383.8C334.31 383.8 333.92 386.15 333.8 389.4C331.5 387.5 329.64 386.39 329.35 386.8C329.08 387.2 330.32 388.87 332.3 390.87C329.69 391.32 327.86 391.94 327.9 392.44C327.94 392.96 329.91 393.18 332.62 393.05C331.05 395.59 330.14 397.61 330.49 397.93C330.82 398.23 332.18 396.93 333.83 394.82C333.99 397.65 334.35 399.63 334.77 399.63C335.24 399.63 335.62 397.27 335.75 394.03C338.05 395.92 339.91 397.04 340.19 396.62C340.47 396.23 339.22 394.55 337.25 392.55C339.86 392.11 341.69 391.48 341.65 390.98C341.61 390.47 339.64 390.24 336.93 390.37Z" id="ah15Et8aT"></path><path d="M287.58 356.87C287.58 356.87 286.11 379.2 293.19 380.21C293.19 380.21 293.78 354.84 293.78 354.84C292.54 355.24 288.82 356.46 287.58 356.87Z" id="a2LCSmhMm"></path><path d="M291.42 265.52C290.18 265.93 289.49 266.15 289.35 266.2C289.35 266.2 280.79 344.69 286.4 359.91C286.4 359.91 292.3 356.19 295.26 356.87C295.57 352.6 297.15 331.29 299.98 292.92L291.42 265.52Z" id="h3bI6cFPU"></path></defs><g><g><g><use xlink:href="#a1XpGnd6Yb" opacity="1" fill="#f2f2f2" fill-opacity="1"></use><g><use xlink:href="#a1XpGnd6Yb" opacity="1" fill-opacity="0" stroke="#000000" stroke-width="1" stroke-opacity="0"></use></g></g><g><use xlink:href="#a1g078yIwb" opacity="1" fill="#6eff63" fill-opacity="1"></use><g><use xlink:href="#a1g078yIwb" opacity="1" fill-opacity="0" stroke="#000000" stroke-width="1" stroke-opacity="0"></use></g></g><g><use xlink:href="#aBuEy1yN" opacity="1" fill="#3f3d56" fill-opacity="1"></use><g><use xlink:href="#aBuEy1yN" opacity="1" fill-opacity="0" stroke="#000000" stroke-width="1" stroke-opacity="0"></use></g></g><g><use xlink:href="#aaKJ7MfKs" opacity="1" fill="#6eff63" fill-opacity="1"></use><g><use xlink:href="#aaKJ7MfKs" opacity="1" fill-opacity="0" stroke="#000000" stroke-width="1" stroke-opacity="0"></use></g></g><g><use xlink:href="#k4lNgzoN2E" opacity="1" fill="#3f3d56" fill-opacity="1"></use><g><use xlink:href="#k4lNgzoN2E" opacity="1" fill-opacity="0" stroke="#000000" stroke-width="1" stroke-opacity="0"></use></g></g><g><use xlink:href="#cJs2WGzZ7" opacity="1" fill="#6eff63" fill-opacity="1"></use><g><use xlink:href="#cJs2WGzZ7" opacity="1" fill-opacity="0" stroke="#000000" stroke-width="1" stroke-opacity="0"></use></g></g><g><use xlink:href="#a1FlBBlzay" opacity="1" fill="#3f3d56" fill-opacity="1"></use><g><use xlink:href="#a1FlBBlzay" opacity="1" fill-opacity="0" stroke="#000000" stroke-width="1" stroke-opacity="0"></use></g></g><g><use xlink:href="#aS4n8Njwd" opacity="1" fill="#3f3d56" fill-opacity="1"></use><g><use xlink:href="#aS4n8Njwd" opacity="1" fill-opacity="0" stroke="#000000" stroke-width="1" stroke-opacity="0"></use></g></g><g><use xlink:href="#b5nX8wF20c" opacity="1" fill="#000000" fill-opacity="1"></use><g><use xlink:href="#b5nX8wF20c" opacity="1" fill-opacity="0" stroke="#000000" stroke-width="1" stroke-opacity="0"></use></g></g><g><use xlink:href="#b1GzztRzpC" opacity="1" fill="#3f3d56" fill-opacity="1"></use><g><use xlink:href="#b1GzztRzpC" opacity="1" fill-opacity="0" stroke="#000000" stroke-width="1" stroke-opacity="0"></use></g></g><g><use xlink:href="#aeArKEInW" opacity="1" fill="#3f3d56" fill-opacity="1"></use><g><use xlink:href="#aeArKEInW" opacity="1" fill-opacity="0" stroke="#000000" stroke-width="1" stroke-opacity="0"></use></g></g><g><use xlink:href="#f3BmrfUoZp" opacity="1" fill="#6c63ff" fill-opacity="1"></use><g><use xlink:href="#f3BmrfUoZp" opacity="1" fill-opacity="0" stroke="#000000" stroke-width="1" stroke-opacity="0"></use></g></g><g><use xlink:href="#b8tPwm7IM" opacity="1" fill="#6c63ff" fill-opacity="1"></use><g><use xlink:href="#b8tPwm7IM" opacity="1" fill-opacity="0" stroke="#000000" stroke-width="1" stroke-opacity="0"></use></g></g><g><use xlink:href="#cb7XcgMSC" opacity="1" fill="#3f3d56" fill-opacity="1"></use><g><use xlink:href="#cb7XcgMSC" opacity="1" fill-opacity="0" stroke="#000000" stroke-width="1" stroke-opacity="0"></use></g></g><g><use xlink:href="#ahx0eD6F2" opacity="1" fill="#a8a8a8" fill-opacity="1"></use><g><use xlink:href="#ahx0eD6F2" opacity="1" fill-opacity="0" stroke="#000000" stroke-width="1" stroke-opacity="0"></use></g></g><g><use xlink:href="#bq5WTa3lS" opacity="1" fill="#000000" fill-opacity="1"></use><g><use xlink:href="#bq5WTa3lS" opacity="1" fill-opacity="0" stroke="#000000" stroke-width="1" stroke-opacity="0"></use></g></g><g><use xlink:href="#a3ksSO28hd" opacity="1" fill="#000000" fill-opacity="1"></use><g><use xlink:href="#a3ksSO28hd" opacity="1" fill-opacity="0" stroke="#000000" stroke-width="1" stroke-opacity="0"></use></g></g><g><use xlink:href="#aBNDz5Zx" opacity="1" fill="#ffb9b9" fill-opacity="1"></use><g><use xlink:href="#aBNDz5Zx" opacity="1" fill-opacity="0" stroke="#000000" stroke-width="1" stroke-opacity="0"></use></g></g><g><use xlink:href="#dtAPG6dBM" opacity="1" fill="#ffb9b9" fill-opacity="1"></use><g><use xlink:href="#dtAPG6dBM" opacity="1" fill-opacity="0" stroke="#000000" stroke-width="1" stroke-opacity="0"></use></g></g><g><use xlink:href="#e3klHl5LLR" opacity="1" fill="#ffb9b9" fill-opacity="1"></use><g><use xlink:href="#e3klHl5LLR" opacity="1" fill-opacity="0" stroke="#000000" stroke-width="1" stroke-opacity="0"></use></g></g><g><use xlink:href="#eh2M36hqi" opacity="1" fill="#000000" fill-opacity="1"></use><g><use xlink:href="#eh2M36hqi" opacity="1" fill-opacity="0" stroke="#000000" stroke-width="1" stroke-opacity="0"></use></g></g><g><use xlink:href="#bnxUVmdlV" opacity="1" fill="#ffb9b9" fill-opacity="1"></use><g><use xlink:href="#bnxUVmdlV" opacity="1" fill-opacity="0" stroke="#000000" stroke-width="1" stroke-opacity="0"></use></g></g><g><use xlink:href="#b1awCyaWnv" opacity="1" fill="#2f2e41" fill-opacity="1"></use><g><use xlink:href="#b1awCyaWnv" opacity="1" fill-opacity="0" stroke="#000000" stroke-width="1" stroke-opacity="0"></use></g></g><g><use xlink:href="#b2jbjbPS6" opacity="1" fill="#ffb9b9" fill-opacity="1"></use><g><use xlink:href="#b2jbjbPS6" opacity="1" fill-opacity="0" stroke="#000000" stroke-width="1" stroke-opacity="0"></use></g></g><g><use xlink:href="#c52drcxjZP" opacity="1" fill="#f2f2f2" fill-opacity="1"></use><g><use xlink:href="#c52drcxjZP" opacity="1" fill-opacity="0" stroke="#000000" stroke-width="1" stroke-opacity="0"></use></g></g><g><use xlink:href="#bkGdhtM4T" opacity="1" fill="#2f2e41" fill-opacity="1"></use><g><use xlink:href="#bkGdhtM4T" opacity="1" fill-opacity="0" stroke="#000000" stroke-width="1" stroke-opacity="0"></use></g></g><g><use xlink:href="#d4t0K9Q0TE" opacity="1" fill="#2f2e41" fill-opacity="1"></use><g><use xlink:href="#d4t0K9Q0TE" opacity="1" fill-opacity="0" stroke="#000000" stroke-width="1" stroke-opacity="0"></use></g></g><g><use xlink:href="#e4jzSBIWGA" opacity="1" fill="#2f2e41" fill-opacity="1"></use><g><use xlink:href="#e4jzSBIWGA" opacity="1" fill-opacity="0" stroke="#000000" stroke-width="1" stroke-opacity="0"></use></g></g><g><use xlink:href="#b8E9AUm43F" opacity="1" fill="#ffb9b9" fill-opacity="1"></use><g><use xlink:href="#b8E9AUm43F" opacity="1" fill-opacity="0" stroke="#000000" stroke-width="1" stroke-opacity="0"></use></g></g><g><use xlink:href="#c14tal1V6F" opacity="1" fill="#936e6e" fill-opacity="1"></use><g><use xlink:href="#c14tal1V6F" opacity="1" fill-opacity="0" stroke="#000000" stroke-width="1" stroke-opacity="0"></use></g></g><g><use xlink:href="#b8zKYdnmLp" opacity="1" fill="#2f2e41" fill-opacity="1"></use><g><use xlink:href="#b8zKYdnmLp" opacity="1" fill-opacity="0" stroke="#000000" stroke-width="1" stroke-opacity="0"></use></g></g><g><use xlink:href="#d3PZ3b6anD" opacity="1" fill="#ffffff" fill-opacity="1"></use><g><use xlink:href="#d3PZ3b6anD" opacity="1" fill-opacity="0" stroke="#000000" stroke-width="1" stroke-opacity="0"></use></g></g><g><use xlink:href="#b7evXnZFcW" opacity="1" fill="#3f3d56" fill-opacity="1"></use><g><use xlink:href="#b7evXnZFcW" opacity="1" fill-opacity="0" stroke="#000000" stroke-width="1" stroke-opacity="0"></use></g></g><g><use xlink:href="#bp4RYv7RM" opacity="1" fill="#ffffff" fill-opacity="1"></use><g><use xlink:href="#bp4RYv7RM" opacity="1" fill-opacity="0" stroke="#000000" stroke-width="1" stroke-opacity="0"></use></g></g><g><use xlink:href="#eouyNBAXX" opacity="1" fill="#ffffff" fill-opacity="1"></use><g><use xlink:href="#eouyNBAXX" opacity="1" fill-opacity="0" stroke="#000000" stroke-width="1" stroke-opacity="0"></use></g></g><g><use xlink:href="#afmIVNuhE" opacity="1" fill="#ffffff" fill-opacity="1"></use><g><use xlink:href="#afmIVNuhE" opacity="1" fill-opacity="0" stroke="#000000" stroke-width="1" stroke-opacity="0"></use></g></g><g><use xlink:href="#aJtx2a50e" opacity="1" fill="#ffffff" fill-opacity="1"></use><g><use xlink:href="#aJtx2a50e" opacity="1" fill-opacity="0" stroke="#000000" stroke-width="1" stroke-opacity="0"></use></g></g><g><use xlink:href="#ah15Et8aT" opacity="1" fill="#ffffff" fill-opacity="1"></use><g><use xlink:href="#ah15Et8aT" opacity="1" fill-opacity="0" stroke="#000000" stroke-width="1" stroke-opacity="0"></use></g></g><g><use xlink:href="#a2LCSmhMm" opacity="1" fill="#ffb9b9" fill-opacity="1"></use><g><use xlink:href="#a2LCSmhMm" opacity="1" fill-opacity="0" stroke="#000000" stroke-width="1" stroke-opacity="0"></use></g></g><g><use xlink:href="#h3bI6cFPU" opacity="1" fill="#2f2e41" fill-opacity="1"></use><g><use xlink:href="#h3bI6cFPU" opacity="1" fill-opacity="0" stroke="#000000" stroke-width="1" stroke-opacity="0"></use></g></g></g></g></svg>